<svg xmlns="http://www.w3.org/2000/svg" width="1120" height="850" viewBox="0 0 1120 850" font-family="DejaVu Sans, sans-serif">
<rect width="100%" height="100%" fill="#f6ecd2"/>
<text x="40" y="50" font-size="30" font-weight="bold" fill="#c8a040">Origin</text>
<text x="40" y="82" font-size="16" fill="#444"></text>
<line x1="430" y1="710" x2="280" y2="710" stroke="#c8a040" stroke-width="5"/>
<line x1="430" y1="710" x2="580" y2="710" stroke="#c8a040" stroke-width="5"/>
<line x1="430" y1="710" x2="430" y2="600" stroke="#c8a040" stroke-width="5" stroke-dasharray="7 5"/>
<line x1="280" y1="710" x2="130" y2="710" stroke="#c8a040" stroke-width="5"/>
<line x1="130" y1="710" x2="130" y2="600" stroke="#c8a040" stroke-width="5"/>
<line x1="130" y1="600" x2="130" y2="490" stroke="#c8a040" stroke-width="5"/>
<line x1="580" y1="710" x2="730" y2="710" stroke="#c8a040" stroke-width="5"/>
<line x1="730" y1="710" x2="730" y2="600" stroke="#c8a040" stroke-width="5"/>
<line x1="730" y1="600" x2="730" y2="490" stroke="#c8a040" stroke-width="5"/>
<line x1="430" y1="600" x2="430" y2="490" stroke="#c8a040" stroke-width="5"/>
<line x1="430" y1="490" x2="430" y2="380" stroke="#c8a040" stroke-width="5"/>
<line x1="430" y1="490" x2="280" y2="490" stroke="#c8a040" stroke-width="5"/>
<line x1="430" y1="490" x2="580" y2="490" stroke="#c8a040" stroke-width="5"/>
<line x1="280" y1="490" x2="280" y2="380" stroke="#c8a040" stroke-width="5"/>
<line x1="580" y1="490" x2="580" y2="380" stroke="#c8a040" stroke-width="5"/>
<line x1="430" y1="380" x2="430" y2="270" stroke="#c8a040" stroke-width="5"/>
<line x1="430" y1="270" x2="430" y2="160" stroke="#c8a040" stroke-width="5" stroke-dasharray="7 5"/>
<line x1="430" y1="270" x2="280" y2="270" stroke="#c8a040" stroke-width="5"/>
<rect x="410" y="690" width="40" height="40" rx="5" fill="#f5d36b" stroke="#222" stroke-width="2"/>
<text x="430" y="746" font-size="13" text-anchor="middle" fill="#222">Origin Gate</text>
<circle cx="280" cy="710" r="13" fill="#ffffff" stroke="#222" stroke-width="2"/>
<text x="280" y="739" font-size="13" text-anchor="middle" fill="#222">Path of Firsts</text>
<rect x="110" y="690" width="40" height="40" rx="5" fill="#e8674f" stroke="#222" stroke-width="2"/>
<text x="130" y="746" font-size="13" text-anchor="middle" fill="#222">Vellorin Hall</text>
<circle cx="130" cy="600" r="13" fill="#ffffff" stroke="#222" stroke-width="2"/>
<text x="130" y="629" font-size="13" text-anchor="middle" fill="#222">Ember Path</text>
<rect x="110" y="470" width="40" height="40" rx="5" fill="#e8674f" stroke="#222" stroke-width="2"/>
<text x="130" y="526" font-size="13" text-anchor="middle" fill="#222">Calderra Hall</text>
<circle cx="580" cy="710" r="13" fill="#ffffff" stroke="#222" stroke-width="2"/>
<text x="580" y="739" font-size="13" text-anchor="middle" fill="#222">Tide Path</text>
<rect x="710" y="690" width="40" height="40" rx="5" fill="#e8674f" stroke="#222" stroke-width="2"/>
<text x="730" y="746" font-size="13" text-anchor="middle" fill="#222">Sundered Hall</text>
<circle cx="730" cy="600" r="13" fill="#ffffff" stroke="#222" stroke-width="2"/>
<text x="730" y="629" font-size="13" text-anchor="middle" fill="#222">Wind Path</text>
<rect x="710" y="470" width="40" height="40" rx="5" fill="#e8674f" stroke="#222" stroke-width="2"/>
<text x="730" y="526" font-size="13" text-anchor="middle" fill="#222">Skyreach Hall</text>
<circle cx="430" cy="600" r="13" fill="#ffffff" stroke="#222" stroke-width="2"/>
<text x="430" y="629" font-size="13" text-anchor="middle" fill="#222">Mountain Ascent</text>
<rect x="410" y="470" width="40" height="40" rx="5" fill="#e8674f" stroke="#222" stroke-width="2"/>
<text x="430" y="526" font-size="13" text-anchor="middle" fill="#222">Genova Hall</text>
<circle cx="280" cy="490" r="13" fill="#ffffff" stroke="#222" stroke-width="2"/>
<text x="280" y="519" font-size="13" text-anchor="middle" fill="#222">Time Path</text>
<rect x="260" y="360" width="40" height="40" rx="5" fill="#e8674f" stroke="#222" stroke-width="2"/>
<text x="280" y="416" font-size="13" text-anchor="middle" fill="#222">Aeterna Hall</text>
<circle cx="580" cy="490" r="13" fill="#ffffff" stroke="#222" stroke-width="2"/>
<text x="580" y="519" font-size="13" text-anchor="middle" fill="#222">Shadow Path</text>
<rect x="560" y="360" width="40" height="40" rx="5" fill="#e8674f" stroke="#222" stroke-width="2"/>
<text x="580" y="416" font-size="13" text-anchor="middle" fill="#222">Hollow Hall</text>
<circle cx="430" cy="380" r="13" fill="#ffffff" stroke="#222" stroke-width="2"/>
<text x="430" y="409" font-size="13" text-anchor="middle" fill="#222">Spear Pillar Steps</text>
<rect x="410" y="250" width="40" height="40" rx="5" fill="#e8674f" stroke="#222" stroke-width="2"/>
<text x="430" y="306" font-size="13" text-anchor="middle" fill="#222">Tempesta Hall</text>
<circle cx="280" cy="270" r="13" fill="#7a5bc4" stroke="#c03030" stroke-width="4"/>
<text x="280" y="299" font-size="13" text-anchor="middle" fill="#222">Hall of Origin (Arceus)</text>
<rect x="410" y="140" width="40" height="40" rx="5" fill="#f5d36b" stroke="#222" stroke-width="2"/>
<text x="430" y="196" font-size="13" text-anchor="middle" fill="#222">Origin League</text>
<rect x="40" y="786" width="18" height="18" fill="#f5d36b" stroke="#222"/>
<text x="66" y="800" font-size="14" fill="#333">town / League</text>
<rect x="210" y="786" width="18" height="18" fill="#e8674f" stroke="#222"/>
<text x="236" y="800" font-size="14" fill="#333">gym town</text>
<rect x="380" y="786" width="18" height="18" fill="#ffffff" stroke="#222"/>
<text x="406" y="800" font-size="14" fill="#333">route</text>
<rect x="550" y="786" width="18" height="18" fill="#7a5bc4" stroke="#222"/>
<text x="576" y="800" font-size="14" fill="#333">story place</text>
<text x="40" y="826" font-size="14" fill="#333">dashed: needs badges or the story · red ring: a legendary</text>
</svg>