<svg xmlns="http://www.w3.org/2000/svg" width="1120" height="1560" viewBox="0 0 1120 1560" font-family="DejaVu Sans, sans-serif">
<rect width="100%" height="100%" fill="#d8d4e0"/>
<text x="40" y="50" font-size="30" font-weight="bold" fill="#6a5a90">THE HOLLOW LANDS</text>
<text x="40" y="82" font-size="16" fill="#444">Region 7: the ring of towns (top) and the reverse side of its roads (bottom)</text>
<line x1="40" y1="800" x2="1080" y2="800" stroke="#6a5a90" stroke-width="2" stroke-dasharray="3 6"/>
<line x1="430" y1="710" x2="280" y2="710" stroke="#6a5a90" stroke-width="5"/>
<line x1="430" y1="710" x2="580" y2="710" stroke="#6a5a90" stroke-width="5"/>
<line x1="430" y1="710" x2="430" y2="600" stroke="#6a5a90" stroke-width="5"/>
<line x1="280" y1="710" x2="130" y2="710" stroke="#6a5a90" stroke-width="5"/>
<line x1="130" y1="710" x2="130" y2="600" stroke="#6a5a90" stroke-width="5"/>
<line x1="130" y1="600" x2="130" y2="490" stroke="#6a5a90" stroke-width="5"/>
<line x1="130" y1="490" x2="130" y2="380" stroke="#6a5a90" stroke-width="5"/>
<line x1="130" y1="380" x2="130" y2="270" stroke="#6a5a90" stroke-width="5" stroke-dasharray="7 5"/>
<line x1="130" y1="270" x2="280" y2="270" stroke="#6a5a90" stroke-width="5" stroke-dasharray="7 5"/>
<line x1="280" y1="270" x2="430" y2="270" stroke="#6a5a90" stroke-width="5"/>
<line x1="430" y1="270" x2="580" y2="270" stroke="#6a5a90" stroke-width="5" stroke-dasharray="7 5"/>
<line x1="580" y1="270" x2="730" y2="270" stroke="#6a5a90" stroke-width="5"/>
<line x1="730" y1="270" x2="730" y2="380" stroke="#6a5a90" stroke-width="5"/>
<line x1="730" y1="380" x2="730" y2="490" stroke="#6a5a90" stroke-width="5"/>
<line x1="730" y1="380" x2="580" y2="380" stroke="#6a5a90" stroke-width="5"/>
<line x1="730" y1="490" x2="730" y2="600" stroke="#6a5a90" stroke-width="5"/>
<line x1="730" y1="600" x2="730" y2="710" stroke="#6a5a90" stroke-width="5"/>
<line x1="730" y1="710" x2="580" y2="710" stroke="#6a5a90" stroke-width="5"/>
<line x1="430" y1="600" x2="430" y2="490" stroke="#6a5a90" stroke-width="5" stroke-dasharray="7 5"/>
<line x1="430" y1="490" x2="430" y2="380" stroke="#6a5a90" stroke-width="5"/>
<line x1="280" y1="980" x2="430" y2="870" stroke="#6a5a90" stroke-width="5"/>
<line x1="580" y1="980" x2="430" y2="870" stroke="#6a5a90" stroke-width="5"/>
<rect x="410" y="690" width="40" height="40" rx="5" fill="#f5d36b" stroke="#222" stroke-width="2"/>
<text x="430" y="746" font-size="13" text-anchor="middle" fill="#222">Gloaming</text>
<circle cx="280" cy="710" r="13" fill="#ffffff" stroke="#222" stroke-width="2"/>
<text x="280" y="739" font-size="13" text-anchor="middle" fill="#222">Dimmer Road</text>
<rect x="110" y="690" width="40" height="40" rx="5" fill="#e8674f" stroke="#222" stroke-width="2"/>
<text x="130" y="746" font-size="13" text-anchor="middle" fill="#222">Wanewick</text>
<circle cx="130" cy="600" r="13" fill="#ffffff" stroke="#222" stroke-width="2"/>
<text x="130" y="629" font-size="13" text-anchor="middle" fill="#222">Pale Way</text>
<rect x="110" y="470" width="40" height="40" rx="5" fill="#e8674f" stroke="#222" stroke-width="2"/>
<text x="130" y="526" font-size="13" text-anchor="middle" fill="#222">Greyhaven</text>
<circle cx="130" cy="380" r="13" fill="#7a5bc4" stroke="#222" stroke-width="2"/>
<text x="130" y="409" font-size="13" text-anchor="middle" fill="#222">Hushed Road</text>
<rect x="110" y="250" width="40" height="40" rx="5" fill="#e8674f" stroke="#222" stroke-width="2"/>
<text x="130" y="306" font-size="13" text-anchor="middle" fill="#222">Stillwater</text>
<circle cx="280" cy="270" r="13" fill="#ffffff" stroke="#222" stroke-width="2"/>
<text x="280" y="299" font-size="13" text-anchor="middle" fill="#222">Lost Road</text>
<rect x="410" y="250" width="40" height="40" rx="5" fill="#e8674f" stroke="#222" stroke-width="2"/>
<text x="430" y="306" font-size="13" text-anchor="middle" fill="#222">Duskfall</text>
<circle cx="580" cy="270" r="13" fill="#ffffff" stroke="#222" stroke-width="2"/>
<text x="580" y="299" font-size="13" text-anchor="middle" fill="#222">Echo Road</text>
<rect x="710" y="250" width="40" height="40" rx="5" fill="#e8674f" stroke="#222" stroke-width="2"/>
<text x="730" y="306" font-size="13" text-anchor="middle" fill="#222">Lanternfall</text>
<circle cx="730" cy="380" r="13" fill="#ffffff" stroke="#222" stroke-width="2"/>
<text x="730" y="409" font-size="13" text-anchor="middle" fill="#222">Ashfall Road</text>
<rect x="710" y="470" width="40" height="40" rx="5" fill="#e8674f" stroke="#222" stroke-width="2"/>
<text x="730" y="526" font-size="13" text-anchor="middle" fill="#222">Mossgrave</text>
<circle cx="730" cy="600" r="13" fill="#ffffff" stroke="#222" stroke-width="2"/>
<text x="730" y="629" font-size="13" text-anchor="middle" fill="#222">Weeping Road</text>
<rect x="710" y="690" width="40" height="40" rx="5" fill="#e8674f" stroke="#222" stroke-width="2"/>
<text x="730" y="746" font-size="13" text-anchor="middle" fill="#222">Echo Bay</text>
<circle cx="580" cy="710" r="13" fill="#ffffff" stroke="#222" stroke-width="2"/>
<text x="580" y="739" font-size="13" text-anchor="middle" fill="#222">Shore Road</text>
<rect x="410" y="580" width="40" height="40" rx="5" fill="#e8674f" stroke="#222" stroke-width="2"/>
<text x="430" y="636" font-size="13" text-anchor="middle" fill="#222">Cenotaph</text>
<circle cx="430" cy="490" r="13" fill="#ffffff" stroke="#222" stroke-width="2"/>
<text x="430" y="519" font-size="13" text-anchor="middle" fill="#222">Mourning Path</text>
<rect x="410" y="360" width="40" height="40" rx="5" fill="#f5d36b" stroke="#222" stroke-width="2"/>
<text x="430" y="416" font-size="13" text-anchor="middle" fill="#222">Hollow League</text>
<circle cx="580" cy="380" r="13" fill="#7a5bc4" stroke="#222" stroke-width="2"/>
<text x="580" y="409" font-size="13" text-anchor="middle" fill="#222">Pyre Tower</text>
<circle cx="280" cy="1420" r="13" fill="#ffffff" stroke="#222" stroke-width="2"/>
<text x="280" y="1449" font-size="13" text-anchor="middle" fill="#222">Reverse Dimmer Road</text>
<circle cx="130" cy="1310" r="13" fill="#ffffff" stroke="#222" stroke-width="2"/>
<text x="130" y="1339" font-size="13" text-anchor="middle" fill="#222">Reverse Pale Way</text>
<circle cx="130" cy="1090" r="13" fill="#ffffff" stroke="#222" stroke-width="2"/>
<text x="130" y="1119" font-size="13" text-anchor="middle" fill="#222">Reverse Hushed Road</text>
<circle cx="280" cy="980" r="13" fill="#ffffff" stroke="#222" stroke-width="2"/>
<text x="280" y="1009" font-size="13" text-anchor="middle" fill="#222">Reverse Lost Road</text>
<circle cx="580" cy="980" r="13" fill="#ffffff" stroke="#222" stroke-width="2"/>
<text x="580" y="1009" font-size="13" text-anchor="middle" fill="#222">Reverse Echo Road</text>
<circle cx="730" cy="1090" r="13" fill="#ffffff" stroke="#222" stroke-width="2"/>
<text x="730" y="1119" font-size="13" text-anchor="middle" fill="#222">Reverse Ashfall Road</text>
<circle cx="730" cy="1310" r="13" fill="#ffffff" stroke="#222" stroke-width="2"/>
<text x="730" y="1339" font-size="13" text-anchor="middle" fill="#222">Reverse Weeping Road</text>
<circle cx="580" cy="1420" r="13" fill="#ffffff" stroke="#222" stroke-width="2"/>
<text x="580" y="1449" font-size="13" text-anchor="middle" fill="#222">Reverse Shore Road</text>
<circle cx="430" cy="870" r="13" fill="#7a5bc4" stroke="#c03030" stroke-width="4"/>
<text x="430" y="899" font-size="13" text-anchor="middle" fill="#222">Distortion World (Giratina)</text>
<rect x="40" y="1496" width="18" height="18" fill="#f5d36b" stroke="#222"/>
<text x="66" y="1510" font-size="14" fill="#333">town / League</text>
<rect x="210" y="1496" width="18" height="18" fill="#e8674f" stroke="#222"/>
<text x="236" y="1510" font-size="14" fill="#333">gym town</text>
<rect x="380" y="1496" width="18" height="18" fill="#ffffff" stroke="#222"/>
<text x="406" y="1510" font-size="14" fill="#333">route</text>
<rect x="550" y="1496" width="18" height="18" fill="#7a5bc4" stroke="#222"/>
<text x="576" y="1510" font-size="14" fill="#333">story place</text>
<text x="40" y="1536" font-size="14" fill="#333">dashed: needs badges or the story · red ring: a legendary · below the dotted line: the other side (reached through rifts)</text>
</svg>